{"asset":{"version":"2.0","generator":"Blockbench 4.12.6 glTF exporter"},"scenes":[{"nodes":[4],"name":"blockbench_export"}],"scene":0,"nodes":[{"name":"shaft","mesh":0},{"translation":[4.73875681242445e-18,0,-1.3539305178355573e-17],"name":"head","mesh":1},{"translation":[-1.4831693399925873e-17,0.6441719962111452,1.3539305178355573e-17],"name":"head","children":[1]},{"translation":[0,0.8245780037888548,0],"name":"shaft","children":[0,2]},{"children":[3]}],"bufferViews":[{"buffer":0,"byteOffset":0,"byteLength":1440,"target":34962,"byteStride":12},{"buffer":0,"byteOffset":1440,"byteLength":1440,"target":34962,"byteStride":12},{"buffer":0,"byteOffset":2880,"byteLength":960,"target":34962,"byteStride":8},{"buffer":0,"byteOffset":3840,"byteLength":360,"target":34963},{"buffer":0,"byteOffset":4200,"byteLength":4080,"target":34962,"byteStride":12},{"buffer":0,"byteOffset":8280,"byteLength":4080,"target":34962,"byteStride":12},{"buffer":0,"byteOffset":12360,"byteLength":2720,"target":34962,"byteStride":8},{"buffer":0,"byteOffset":15080,"byteLength":960,"target":34963}],"buffers":[{"byteLength":16040,"uri":"data:application/octet-stream;base64,"}],"accessors":[{"bufferView":0,"componentType":5126,"count":120,"max":[0.03437500074505806,0.8097969889640808,0.046875],"min":[-0.03437500074505806,-0.8245779871940613,-0.046875],"type":"VEC3"},{"bufferView":1,"componentType":5126,"count":120,"max":[1,1,1],"min":[-1,-1,-1],"type":"VEC3"},{"bufferView":2,"componentType":5126,"count":120,"max":[0.5167927742004395,0.8039281368255615],"min":[0.0078125,0],"type":"VEC2"},{"bufferView":3,"componentType":5123,"count":180,"max":[119],"min":[0],"type":"SCALAR"},{"bufferView":4,"componentType":5126,"count":340,"max":[0.16429097950458527,0.15625,0.28125],"min":[-0.16429097950458527,-0.15625,-0.28125],"type":"VEC3"},{"bufferView":5,"componentType":5126,"count":340,"max":[0.9510565400123596,1,1],"min":[-0.9510565400123596,-1,-1],"type":"VEC3"},{"bufferView":6,"componentType":5126,"count":340,"max":[1,0.500110387802124],"min":[0,0],"type":"VEC2"},{"bufferView":7,"componentType":5123,"count":480,"max":[339],"min":[0],"type":"SCALAR"}],"materials":[{"pbrMetallicRoughness":{"metallicFactor":0,"roughnessFactor":1,"baseColorTexture":{"index":0}},"alphaMode":"MASK","alphaCutoff":0.05,"doubleSided":true},{"pbrMetallicRoughness":{"metallicFactor":0,"roughnessFactor":1,"baseColorTexture":{"index":1}},"alphaMode":"MASK","alphaCutoff":0.05,"doubleSided":true}],"textures":[{"sampler":0,"source":0,"name":"texture"},{"sampler":1,"source":1,"name":"head"}],"samplers":[{"magFilter":9728,"minFilter":9728,"wrapS":33071,"wrapT":33071},{"magFilter":9728,"minFilter":9728,"wrapS":33071,"wrapT":33071}],"images":[{"mimeType":"image/png","uri":"data:image/png;base64,"},{"mimeType":"image/png","uri":"data:image/png;base64,"}],"meshes":[{"primitives":[{"mode":4,"attributes":{"POSITION":0,"NORMAL":1,"TEXCOORD_0":2},"indices":3,"material":0}]},{"primitives":[{"mode":4,"attributes":{"POSITION":4,"NORMAL":5,"TEXCOORD_0":6},"indices":7,"material":1}]}]}